<svg width="268" height="268" viewBox="0 0 268 268" fill="none" xmlns="http://www.w3.org/2000/svg">
<mask id="mask0_123_757" style="mask-type:alpha" maskUnits="userSpaceOnUse" x="0" y="0" width="268" height="268">
<rect width="268" height="268" rx="23" fill="#D9D9D9"/>
</mask>
<g mask="url(#mask0_123_757)">
<path d="M148.222 262V233.556H176.667V262H148.222ZM119.778 233.556V162.444H148.222V233.556H119.778ZM233.556 190.889V134H262V190.889H233.556ZM205.111 134V105.556H233.556V134H205.111ZM34.4444 162.444V134H62.8889V162.444H34.4444ZM6 134V105.556H34.4444V134H6ZM134 34.4444V6H162.444V34.4444H134ZM27.3333 70H70V27.3333H27.3333V70ZM6 91.3333V6H91.3333V91.3333H6ZM27.3333 240.667H70V198H27.3333V240.667ZM6 262V176.667H91.3333V262H6ZM198 70H240.667V27.3333H198V70ZM176.667 91.3333V6H262V91.3333H176.667ZM205.111 262V219.333H176.667V190.889H233.556V233.556H262V262H205.111ZM148.222 162.444V134H205.111V162.444H148.222ZM91.3333 162.444V134H62.8889V105.556H148.222V134H119.778V162.444H91.3333ZM105.556 91.3333V34.4444H134V62.8889H162.444V91.3333H105.556ZM38 59.3333V38H59.3333V59.3333H38ZM38 230V208.667H59.3333V230H38ZM208.667 59.3333V38H230V59.3333H208.667Z" fill="#1C1B1F"/>
</g>
</svg>
